<svg width="39" height="36" viewBox="0 0 39 36" fill="none" xmlns="http://www.w3.org/2000/svg">
<path d="M26 18.6667C26.3682 18.6667 26.6667 18.3682 26.6667 18C26.6667 17.6318 26.3682 17.3333 26 17.3333C25.6318 17.3333 25.3334 17.6318 25.3334 18C25.3334 18.3682 25.6318 18.6667 26 18.6667Z" stroke="#F5F5F5" stroke-width="1.6" stroke-linecap="round" stroke-linejoin="round"/>
<path d="M30.6667 18.6667C31.0349 18.6667 31.3334 18.3682 31.3334 18C31.3334 17.6318 31.0349 17.3333 30.6667 17.3333C30.2985 17.3333 30 17.6318 30 18C30 18.3682 30.2985 18.6667 30.6667 18.6667Z" stroke="#F5F5F5" stroke-width="1.6" stroke-linecap="round" stroke-linejoin="round"/>
<path d="M21.3334 18.6667C21.7015 18.6667 22 18.3682 22 18C22 17.6318 21.7015 17.3333 21.3334 17.3333C20.9652 17.3333 20.6667 17.6318 20.6667 18C20.6667 18.3682 20.9652 18.6667 21.3334 18.6667Z" stroke="#F5F5F5" stroke-width="1.6" stroke-linecap="round" stroke-linejoin="round"/>
</svg>
