<svg width="16" height="16" viewBox="0 0 16 16" fill="none" xmlns="http://www.w3.org/2000/svg">
<g id="More vertical">
<g id="Icon">
<path d="M7.99998 8.66675C8.36817 8.66675 8.66665 8.36827 8.66665 8.00008C8.66665 7.63189 8.36817 7.33341 7.99998 7.33341C7.63179 7.33341 7.33331 7.63189 7.33331 8.00008C7.33331 8.36827 7.63179 8.66675 7.99998 8.66675Z" stroke="white" stroke-width="1.6" stroke-linecap="round" stroke-linejoin="round"/>
<path d="M7.99998 4.00008C8.36817 4.00008 8.66665 3.7016 8.66665 3.33341C8.66665 2.96522 8.36817 2.66675 7.99998 2.66675C7.63179 2.66675 7.33331 2.96522 7.33331 3.33341C7.33331 3.7016 7.63179 4.00008 7.99998 4.00008Z" stroke="white" stroke-width="1.6" stroke-linecap="round" stroke-linejoin="round"/>
<path d="M7.99998 13.3334C8.36817 13.3334 8.66665 13.0349 8.66665 12.6667C8.66665 12.2986 8.36817 12.0001 7.99998 12.0001C7.63179 12.0001 7.33331 12.2986 7.33331 12.6667C7.33331 13.0349 7.63179 13.3334 7.99998 13.3334Z" stroke="white" stroke-width="1.6" stroke-linecap="round" stroke-linejoin="round"/>
</g>
</g>
</svg>
