<svg width="35" height="34" viewBox="0 0 35 34" fill="none" xmlns="http://www.w3.org/2000/svg">
<path d="M0.441406 24C0.441406 29.5228 4.91856 34 10.4414 34H24.4414C29.9643 34 34.4414 29.5228 34.4414 24V10C34.4414 4.47715 29.9643 0 24.4414 0H10.4414C4.91856 0 0.441406 4.47715 0.441406 10V24Z" fill="#EFFFCE"/>
<path d="M21.4414 29H13.4414V21H21.4414V29Z" fill="#F2DA00"/>
<path d="M29.4414 29H21.4414V21H29.4414V29Z" fill="#F2DA00"/>
<path d="M13.4414 21H5.44141V13H13.4414V21Z" fill="#F2DA00"/>
<path d="M29.4414 21H21.4414V13H29.4414V21Z" fill="#F2DA00"/>
<path d="M13.4414 13H5.44141V5H13.4414V13Z" fill="#F2DA00"/>
<path d="M21.4414 13H13.4414V5H21.4414V13Z" fill="#F2DA00"/>
</svg>
