<svg width="35" height="34" viewBox="0 0 35 34" fill="none" xmlns="http://www.w3.org/2000/svg">
<path d="M0.441406 24C0.441406 29.5228 4.91856 34 10.4414 34H24.4414C29.9643 34 34.4414 29.5228 34.4414 24V10C34.4414 4.47715 29.9643 0 24.4414 0H10.4414C4.91856 0 0.441406 4.47715 0.441406 10V24Z" fill="#FFBBE4"/>
<path fill-rule="evenodd" clip-rule="evenodd" d="M17.4413 4V16.9982H4.44312C4.44312 20.5878 5.89786 23.8391 8.25092 26.1922C10.604 28.5453 13.8517 30 17.4413 30V17.0018H30.4395C30.4395 13.4122 28.9847 10.1609 26.6317 7.8078C24.2786 5.45475 21.0309 4 17.4377 4H17.4413Z" fill="#FF54B0"/>
</svg>
