<svg width="35" height="34" viewBox="0 0 35 34" fill="none" xmlns="http://www.w3.org/2000/svg">
<path d="M0.441406 24C0.441406 29.5228 4.91856 34 10.4414 34H24.4414C29.9643 34 34.4414 29.5228 34.4414 24V10C34.4414 4.47715 29.9643 0 24.4414 0H10.4414C4.91856 0 0.441406 4.47715 0.441406 10V24Z" fill="#9CB5FF"/>
<path d="M23.7528 17.0671C25.6072 17.7294 27.4086 18.7758 28.614 19.9811C31.3028 22.67 30.2564 25.9549 28.1504 28.0477C26.0443 30.1405 22.4945 30.922 20.0838 28.5113C19.0639 27.4914 18.0837 25.8224 17.3949 24.0475C16.7194 25.69 15.8055 27.2265 14.8385 28.1802C12.4278 30.6041 8.87802 29.8226 6.77197 27.7298C4.67916 25.6238 3.61951 22.3521 6.30837 19.6632C7.32828 18.6433 8.79855 17.7294 10.3483 17.0671C8.61311 16.3916 6.99714 15.4246 5.99048 14.418C3.57978 12.0073 4.34802 8.44421 6.45407 6.3514C8.56013 4.24535 11.8318 3.19895 14.5207 5.88781C15.6995 7.06667 16.7327 8.81508 17.3949 10.6297C18.0572 8.72236 19.1301 6.84149 20.362 5.60965C23.0508 2.92079 26.3357 3.96719 28.4285 6.07325C30.5346 8.1793 31.3028 11.7291 28.8921 14.1398C27.7398 15.2922 25.7662 16.3916 23.7528 17.0671ZM13.8054 13.2391C15.7657 15.3319 15.7392 18.5903 13.7524 20.6699C15.8452 18.7096 19.1036 18.736 21.1832 20.7229C19.2228 18.6301 19.2493 15.3717 21.2362 13.2921C19.1434 15.2525 15.8849 15.226 13.8054 13.2391Z" fill="#5480FF"/>
</svg>
