<svg width="35" height="34" viewBox="0 0 35 34" fill="none" xmlns="http://www.w3.org/2000/svg">
<path d="M0.441406 24C0.441406 29.5228 4.91856 34 10.4414 34H24.4414C29.9643 34 34.4414 29.5228 34.4414 24V10C34.4414 4.47715 29.9643 0 24.4414 0H10.4414C4.91856 0 0.441406 4.47715 0.441406 10V24Z" fill="#D2FFF7"/>
<path fill-rule="evenodd" clip-rule="evenodd" d="M29.4378 5.00699V17.0035V29C29.4378 29 5.44482 29 5.44482 23C5.44482 17 29.4378 17 29.4378 17C29.4378 17 5.44482 17 5.44482 11C5.44482 5 29.4378 5 29.4378 5V5.00699Z" fill="#47FBDB"/>
</svg>
