<svg width="16" height="17" viewBox="0 0 16 17" fill="none" xmlns="http://www.w3.org/2000/svg">
<g id="Settings" clip-path="url(#clip0_11836_9180)">
<g id="Icon">
<path d="M7.99999 10.5C9.10456 10.5 9.99999 9.60459 9.99999 8.50002C9.99999 7.39545 9.10456 6.50002 7.99999 6.50002C6.89542 6.50002 5.99999 7.39545 5.99999 8.50002C5.99999 9.60459 6.89542 10.5 7.99999 10.5Z" stroke="white" stroke-width="1.6" stroke-linecap="round" stroke-linejoin="round"/>
<path d="M12.9333 10.5C12.8446 10.7011 12.8181 10.9241 12.8573 11.1404C12.8965 11.3567 12.9996 11.5562 13.1533 11.7134L13.1933 11.7534C13.3173 11.8772 13.4156 12.0242 13.4827 12.1861C13.5498 12.348 13.5844 12.5215 13.5844 12.6967C13.5844 12.8719 13.5498 13.0454 13.4827 13.2073C13.4156 13.3691 13.3173 13.5162 13.1933 13.64C13.0695 13.764 12.9224 13.8623 12.7606 13.9294C12.5987 13.9965 12.4252 14.0311 12.25 14.0311C12.0748 14.0311 11.9013 13.9965 11.7394 13.9294C11.5775 13.8623 11.4305 13.764 11.3067 13.64L11.2667 13.6C11.1095 13.4463 10.91 13.3432 10.6937 13.304C10.4775 13.2648 10.2544 13.2913 10.0533 13.38C9.85614 13.4645 9.68798 13.6048 9.56953 13.7837C9.45108 13.9626 9.38751 14.1722 9.38666 14.3867V14.5C9.38666 14.8536 9.24618 15.1928 8.99613 15.4428C8.74608 15.6929 8.40694 15.8334 8.05332 15.8334C7.6997 15.8334 7.36056 15.6929 7.11051 15.4428C6.86047 15.1928 6.71999 14.8536 6.71999 14.5V14.44C6.71483 14.2194 6.6434 14.0053 6.515 13.8258C6.38659 13.6463 6.20715 13.5095 5.99999 13.4334C5.79891 13.3446 5.57586 13.3181 5.3596 13.3573C5.14333 13.3966 4.94378 13.4997 4.78666 13.6534L4.74666 13.6934C4.62283 13.8173 4.47577 13.9157 4.31391 13.9828C4.15205 14.0499 3.97854 14.0844 3.80332 14.0844C3.6281 14.0844 3.4546 14.0499 3.29274 13.9828C3.13087 13.9157 2.98382 13.8173 2.85999 13.6934C2.73602 13.5695 2.63768 13.4225 2.57058 13.2606C2.50348 13.0987 2.46894 12.9252 2.46894 12.75C2.46894 12.5748 2.50348 12.4013 2.57058 12.2394C2.63768 12.0776 2.73602 11.9305 2.85999 11.8067L2.89999 11.7667C3.05368 11.6096 3.15678 11.41 3.19599 11.1937C3.23521 10.9775 3.20873 10.7544 3.11999 10.5534C3.03548 10.3562 2.89516 10.188 2.7163 10.0696C2.53744 9.95111 2.32785 9.88754 2.11332 9.88669H1.99999C1.64637 9.88669 1.30723 9.74621 1.05718 9.49616C0.807132 9.24611 0.666656 8.90698 0.666656 8.55335C0.666656 8.19973 0.807132 7.86059 1.05718 7.61054C1.30723 7.3605 1.64637 7.22002 1.99999 7.22002H2.05999C2.28065 7.21486 2.49466 7.14343 2.67419 7.01503C2.85372 6.88662 2.99047 6.70718 3.06666 6.50002C3.1554 6.29894 3.18187 6.07589 3.14266 5.85963C3.10345 5.64336 3.00035 5.44381 2.84666 5.28669L2.80666 5.24669C2.68269 5.12286 2.58434 4.9758 2.51724 4.81394C2.45014 4.65208 2.41561 4.47857 2.41561 4.30335C2.41561 4.12813 2.45014 3.95463 2.51724 3.79277C2.58434 3.6309 2.68269 3.48385 2.80666 3.36002C2.93049 3.23605 3.07754 3.13771 3.2394 3.07061C3.40127 3.00351 3.57477 2.96897 3.74999 2.96897C3.92521 2.96897 4.09871 3.00351 4.26058 3.07061C4.42244 3.13771 4.56949 3.23605 4.69332 3.36002L4.73332 3.40002C4.89044 3.55371 5.09 3.65681 5.30626 3.69602C5.52253 3.73524 5.74558 3.70876 5.94666 3.62002H5.99999C6.19717 3.53551 6.36533 3.39519 6.48378 3.21633C6.60223 3.03747 6.6658 2.82788 6.66666 2.61335V2.50002C6.66666 2.1464 6.80713 1.80726 7.05718 1.55721C7.30723 1.30716 7.64637 1.16669 7.99999 1.16669C8.35361 1.16669 8.69275 1.30716 8.9428 1.55721C9.19285 1.80726 9.33332 2.1464 9.33332 2.50002V2.56002C9.33418 2.77454 9.39774 2.98414 9.51619 3.163C9.63464 3.34186 9.80281 3.48218 9.99999 3.56669C10.2011 3.65543 10.4241 3.6819 10.6404 3.64269C10.8566 3.60348 11.0562 3.50038 11.2133 3.34669L11.2533 3.30669C11.3772 3.18272 11.5242 3.08437 11.6861 3.01727C11.8479 2.95017 12.0214 2.91564 12.1967 2.91564C12.3719 2.91564 12.5454 2.95017 12.7072 3.01727C12.8691 3.08437 13.0162 3.18272 13.14 3.30669C13.264 3.43052 13.3623 3.57757 13.4294 3.73943C13.4965 3.9013 13.531 4.0748 13.531 4.25002C13.531 4.42524 13.4965 4.59874 13.4294 4.76061C13.3623 4.92247 13.264 5.06952 13.14 5.19335L13.1 5.23335C12.9463 5.39047 12.8432 5.59003 12.804 5.80629C12.7648 6.02256 12.7912 6.24561 12.88 6.44669V6.50002C12.9645 6.6972 13.1048 6.86536 13.2837 6.98382C13.4625 7.10227 13.6721 7.16583 13.8867 7.16669H14C14.3536 7.16669 14.6927 7.30716 14.9428 7.55721C15.1928 7.80726 15.3333 8.1464 15.3333 8.50002C15.3333 8.85364 15.1928 9.19278 14.9428 9.44283C14.6927 9.69288 14.3536 9.83335 14 9.83335H13.94C13.7255 9.83421 13.5159 9.89777 13.337 10.0162C13.1582 10.1347 13.0178 10.3028 12.9333 10.5Z" stroke="white" stroke-width="1.6" stroke-linecap="round" stroke-linejoin="round"/>
</g>
</g>
<defs>
<clipPath id="clip0_11836_9180">
<rect width="16" height="16" fill="white" transform="translate(0 0.5)"/>
</clipPath>
</defs>
</svg>
