<svg width="16" height="16" viewBox="0 0 16 16" fill="none" xmlns="http://www.w3.org/2000/svg">
<path d="M0 12C0 14.2091 1.79086 16 4 16H12C14.2091 16 16 14.2091 16 12V4C16 1.79086 14.2091 0 12 0H4C1.79086 0 0 1.79086 0 4V12Z" fill="#EFFFCE"/>
<path d="M10 14H6V10H10V14Z" fill="#F2DA00"/>
<path d="M14 14H10V10H14V14Z" fill="#F2DA00"/>
<path d="M6 10H2V6H6V10Z" fill="#F2DA00"/>
<path d="M14 10H10V6H14V10Z" fill="#F2DA00"/>
<path d="M6 6H2V2H6V6Z" fill="#F2DA00"/>
<path d="M10 6H6V2H10V6Z" fill="#F2DA00"/>
</svg>
