<svg width="16" height="16" viewBox="0 0 16 16" fill="none" xmlns="http://www.w3.org/2000/svg">
<path d="M0 12C0 14.2091 1.79086 16 4 16H12C14.2091 16 16 14.2091 16 12V4C16 1.79086 14.2091 0 12 0H4C1.79086 0 0 1.79086 0 4V12Z" fill="#FFBBE4"/>
<path fill-rule="evenodd" clip-rule="evenodd" d="M8.00007 1.5V7.99909H1.50098C1.50098 9.79389 2.22835 11.4196 3.40488 12.5961C4.58141 13.7726 6.20527 14.5 8.00007 14.5V8.00091H14.4992C14.4992 6.20611 13.7718 4.58043 12.5953 3.4039C11.4187 2.22737 9.79486 1.5 7.99825 1.5H8.00007Z" fill="#FF54B0"/>
</svg>
