<svg xmlns="http://www.w3.org/2000/svg" width="16" height="13" viewBox="0 0 16 13" fill="none">
<path d="M13.1357 6.57983C13.1357 6.98509 12.8072 7.31359 12.402 7.31359C11.9967 7.31359 11.6682 6.98509 11.6682 6.57983C11.6682 6.17457 11.9967 5.84607 12.402 5.84607C12.8072 5.84607 13.1357 6.17457 13.1357 6.57983Z" fill="#757575"/>
<path fill-rule="evenodd" clip-rule="evenodd" d="M6.49107 0.15918H8.77514C10.1236 0.159165 11.1917 0.159158 12.0276 0.271548C12.8879 0.387204 13.5842 0.6309 14.1334 1.18002C14.8116 1.8583 15.0277 2.7667 15.1062 3.94545C15.5298 4.13184 15.8496 4.52601 15.8848 5.02533C15.888 5.0695 15.8879 5.11713 15.8879 5.16123C15.8879 5.16527 15.8879 5.16923 15.8879 5.17319V7.98599C15.8879 7.98995 15.8879 7.99391 15.8879 7.99795C15.8879 8.04205 15.888 8.08967 15.8848 8.13384C15.8496 8.63317 15.5298 9.02734 15.1062 9.21372C15.0277 10.3925 14.8116 11.3009 14.1334 11.9792C13.5842 12.5283 12.8879 12.7719 12.0276 12.8877C11.1917 13 10.1236 13 8.77514 13H6.49108C5.1426 13 4.07451 13 3.2386 12.8877C2.37833 12.7719 1.68202 12.5283 1.1329 11.9792C0.583781 11.43 0.340084 10.7337 0.224429 9.87344C0.112039 9.03754 0.112046 7.96948 0.112061 6.62097V6.53821C0.112046 5.1897 0.112039 4.12163 0.224429 3.28572C0.340084 2.42545 0.583781 1.72914 1.1329 1.18002C1.68202 0.6309 2.37833 0.387204 3.2386 0.271548C4.07451 0.159158 5.1426 0.159165 6.49107 0.15918ZM13.9933 9.33119H12.5719C10.9978 9.33119 9.65096 8.13692 9.65096 6.57959C9.65096 5.02223 10.9978 3.82799 12.5719 3.82799H13.9933C13.9098 2.84368 13.7208 2.32409 13.3551 1.95829C13.0445 1.64775 12.6192 1.46162 11.881 1.36237C11.1269 1.26099 10.1329 1.25982 8.73376 1.25982H6.53247C5.13332 1.25982 4.13932 1.26099 3.38526 1.36237C2.64703 1.46162 2.2217 1.64775 1.91117 1.95829C1.60063 2.26882 1.4145 2.69415 1.31525 3.43238C1.21387 4.18644 1.2127 5.18045 1.2127 6.57959C1.2127 7.97873 1.21387 8.97275 1.31525 9.72684C1.4145 10.465 1.60063 10.8904 1.91117 11.2009C2.2217 11.5114 2.64703 11.6976 3.38526 11.7968C4.13932 11.8982 5.13332 11.8994 6.53247 11.8994H8.73376C10.1329 11.8994 11.1269 11.8982 11.881 11.7968C12.6192 11.6976 13.0445 11.5114 13.3551 11.2009C13.7208 10.8351 13.9098 10.3155 13.9933 9.33119ZM3.04711 3.64455C3.04711 3.34061 3.2935 3.09422 3.59743 3.09422H6.53247C6.8364 3.09422 7.08279 3.34061 7.08279 3.64455C7.08279 3.94848 6.8364 4.19487 6.53247 4.19487H3.59743C3.2935 4.19487 3.04711 3.94848 3.04711 3.64455ZM14.5477 4.9288C14.5328 4.92863 14.5133 4.92863 14.4815 4.92863H12.5719C11.5275 4.92863 10.7516 5.70546 10.7516 6.57959C10.7516 7.45372 11.5275 8.23055 12.5719 8.23055H14.4815C14.5133 8.23055 14.5328 8.23055 14.5477 8.2304C14.5569 8.23026 14.5617 8.23019 14.564 8.23004L14.5656 8.22997C14.7169 8.22079 14.7819 8.11873 14.7869 8.05731C14.7869 8.05731 14.7871 8.05269 14.7871 8.04608C14.7873 8.03302 14.7873 8.01571 14.7873 7.98599V5.17319C14.7873 5.14347 14.7873 5.12616 14.7871 5.1131C14.7871 5.10648 14.7869 5.10186 14.7869 5.10186C14.7819 5.04047 14.7169 4.93839 14.5656 4.92919C14.5656 4.92919 14.562 4.92894 14.5477 4.9288Z" fill="#757575"/>
</svg>