<svg width="16" height="16" viewBox="0 0 16 16" fill="none" xmlns="http://www.w3.org/2000/svg">
<path d="M0 12C0 14.2091 1.79086 16 4 16H12C14.2091 16 16 14.2091 16 12V4C16 1.79086 14.2091 0 12 0H4C1.79086 0 0 1.79086 0 4V12Z" fill="#D2FFF7"/>
<path d="M11.1557 8.03355C12.0829 8.36469 12.9836 8.88789 13.5863 9.49057C14.9307 10.835 14.4075 12.4775 13.3545 13.5239C12.3015 14.5703 10.5266 14.961 9.3212 13.7557C8.81125 13.2457 8.32116 12.4112 7.97677 11.5238C7.63901 12.345 7.18203 13.1132 6.69857 13.5901C5.49322 14.8021 3.71831 14.4113 2.66528 13.3649C1.61888 12.3119 1.08905 10.676 2.43348 9.33162C2.94344 8.82166 3.67857 8.36469 4.45344 8.03355C3.58585 7.69579 2.77787 7.21232 2.27454 6.70899C1.06919 5.50364 1.45331 3.7221 2.50633 2.6757C3.55936 1.62267 5.19519 1.09947 6.53962 2.4439C7.12905 3.03333 7.64563 3.90754 7.97677 4.81487C8.30791 3.86118 8.84436 2.92074 9.46028 2.30482C10.8047 0.960394 12.4472 1.4836 13.4936 2.53662C14.5466 3.58965 14.9307 5.36456 13.7254 6.56991C13.1492 7.14609 12.1624 7.69579 11.1557 8.03355ZM6.18199 6.11956C7.16217 7.16596 7.14892 8.79517 6.1555 9.83495C7.2019 8.85478 8.83111 8.86802 9.87089 9.86144C8.89072 8.81504 8.90397 7.18583 9.89739 6.14605C8.85098 7.12623 7.22177 7.11298 6.18199 6.11956Z" fill="#47FBDB"/>
</svg>
