<svg width="20" height="17" viewBox="0 0 20 17" fill="none" xmlns="http://www.w3.org/2000/svg">
<g id="Icon">
<path id="Vector" d="M16.4197 8.47482C16.4197 8.98139 16.0091 9.39202 15.5025 9.39202C14.9959 9.39202 14.5853 8.98139 14.5853 8.47482C14.5853 7.96825 14.9959 7.55762 15.5025 7.55762C16.0091 7.55762 16.4197 7.96825 16.4197 8.47482Z" fill="white"/>
<path id="Vector_2" fill-rule="evenodd" clip-rule="evenodd" d="M8.11384 0.448975H10.9689C12.6546 0.448957 13.9896 0.448948 15.0345 0.589435C16.1098 0.734005 16.9803 1.03863 17.6667 1.72502C18.5145 2.57287 18.7847 3.70837 18.8828 5.18181C19.4122 5.4148 19.812 5.90752 19.8561 6.53166C19.86 6.58688 19.8599 6.64641 19.8599 6.70154C19.8599 6.70658 19.8599 6.71153 19.8599 6.71649V10.2325C19.8599 10.2374 19.8599 10.2424 19.8599 10.2474C19.8599 10.3026 19.86 10.3621 19.8561 10.4173C19.812 11.0415 19.4122 11.5342 18.8828 11.7671C18.7847 13.2406 18.5145 14.3761 17.6667 15.224C16.9803 15.9103 16.1098 16.2149 15.0345 16.3596C13.9896 16.5 12.6546 16.5 10.9689 16.5H8.11385C6.42825 16.5 5.09314 16.5 4.04825 16.3596C2.97291 16.2149 2.10253 15.9103 1.41612 15.224C0.729727 14.5376 0.425106 13.6671 0.280536 12.5918C0.140049 11.5469 0.140058 10.2119 0.140076 8.52622V8.42276C0.140058 6.73712 0.140049 5.40204 0.280536 4.35715C0.425106 3.28181 0.729727 2.41143 1.41612 1.72502C2.10253 1.03863 2.97291 0.734005 4.04825 0.589435C5.09314 0.448948 6.42824 0.448957 8.11384 0.448975ZM17.4916 11.914H15.7149C13.7473 11.914 12.0637 10.4212 12.0637 8.47449C12.0637 6.52778 13.7473 5.03498 15.7149 5.03498H17.4916C17.3872 3.8046 17.151 3.15511 16.6938 2.69786C16.3057 2.30969 15.774 2.07703 14.8513 1.95297C13.9086 1.82624 12.6661 1.82478 10.9172 1.82478H8.16559C6.41665 1.82478 5.17415 1.82624 4.23158 1.95297C3.30879 2.07703 2.77713 2.30969 2.38896 2.69786C2.00079 3.08603 1.76813 3.61769 1.64407 4.54047C1.51734 5.48304 1.51588 6.72557 1.51588 8.47449C1.51588 10.2234 1.51734 11.4659 1.64407 12.4085C1.76813 13.3313 2.00079 13.863 2.38896 14.2511C2.77713 14.6393 3.30879 14.872 4.23158 14.996C5.17415 15.1227 6.41665 15.1242 8.16559 15.1242H10.9172C12.6661 15.1242 13.9086 15.1227 14.8513 14.996C15.774 14.872 16.3057 14.6393 16.6938 14.2511C17.151 13.7939 17.3872 13.1444 17.4916 11.914ZM3.80888 4.80568C3.80888 4.42577 4.11687 4.11778 4.49678 4.11778H8.16559C8.5455 4.11778 8.85349 4.42577 8.85349 4.80568C8.85349 5.1856 8.5455 5.49358 8.16559 5.49358H4.49678C4.11687 5.49358 3.80888 5.1856 3.80888 4.80568ZM18.1846 6.411C18.166 6.41079 18.1416 6.41078 18.1019 6.41078H15.7149C14.4093 6.41078 13.4395 7.38183 13.4395 8.47449C13.4395 9.56715 14.4093 10.5382 15.7149 10.5382H18.1019C18.1416 10.5382 18.166 10.5382 18.1846 10.538C18.1961 10.5378 18.2022 10.5377 18.205 10.5375L18.207 10.5375C18.3961 10.526 18.4774 10.3984 18.4836 10.3216C18.4836 10.3216 18.4838 10.3159 18.4839 10.3076C18.4841 10.2913 18.4841 10.2696 18.4841 10.2325V6.71649C18.4841 6.67934 18.4841 6.6577 18.4839 6.64137C18.4838 6.6331 18.4836 6.62733 18.4836 6.62733C18.4774 6.55058 18.3961 6.42298 18.207 6.41148C18.207 6.41148 18.2025 6.41118 18.1846 6.411Z" fill="white"/>
</g>
</svg>
